<mxfile host="Electron" agent="Mozilla/5.0 (X11; Linux x86_64) AppleWebKit/537.36 (KHTML, like Gecko) draw.io/26.0.4 Chrome/128.0.6613.186 Electron/32.2.5 Safari/537.36" version="26.0.4">
  <diagram name="Page-1" id="LL7MeLuGr1XFYOdDXw6k">
    <mxGraphModel dx="1114" dy="1198" grid="1" gridSize="10" guides="1" tooltips="1" connect="1" arrows="1" fold="1" page="1" pageScale="1" pageWidth="850" pageHeight="1100" math="0" shadow="0">
      <root>
        <mxCell id="0" />
        <mxCell id="1" parent="0" />
        <mxCell id="b8N-6D44wyH8Yvn8sc13-7" style="edgeStyle=orthogonalEdgeStyle;rounded=0;orthogonalLoop=1;jettySize=auto;html=1;" edge="1" parent="1" source="b8N-6D44wyH8Yvn8sc13-1" target="b8N-6D44wyH8Yvn8sc13-2">
          <mxGeometry relative="1" as="geometry">
            <Array as="points">
              <mxPoint x="260" y="480" />
              <mxPoint x="260" y="480" />
            </Array>
          </mxGeometry>
        </mxCell>
        <mxCell id="b8N-6D44wyH8Yvn8sc13-8" value="&lt;div&gt;I would like&lt;/div&gt;&lt;div&gt;www.mycorp.com&lt;/div&gt;" style="edgeLabel;html=1;align=center;verticalAlign=middle;resizable=0;points=[];" vertex="1" connectable="0" parent="b8N-6D44wyH8Yvn8sc13-7">
          <mxGeometry x="-0.1363" y="-3" relative="1" as="geometry">
            <mxPoint x="11" y="-3" as="offset" />
          </mxGeometry>
        </mxCell>
        <mxCell id="b8N-6D44wyH8Yvn8sc13-1" value="Client" style="sketch=0;outlineConnect=0;fontColor=#232F3E;gradientColor=none;fillColor=#232F3D;strokeColor=none;dashed=0;verticalLabelPosition=bottom;verticalAlign=top;align=center;html=1;fontSize=12;fontStyle=0;aspect=fixed;pointerEvents=1;shape=mxgraph.aws4.client;" vertex="1" parent="1">
          <mxGeometry x="140" y="450" width="78" height="76" as="geometry" />
        </mxCell>
        <mxCell id="b8N-6D44wyH8Yvn8sc13-9" style="edgeStyle=orthogonalEdgeStyle;rounded=0;orthogonalLoop=1;jettySize=auto;html=1;" edge="1" parent="1" source="b8N-6D44wyH8Yvn8sc13-2" target="b8N-6D44wyH8Yvn8sc13-3">
          <mxGeometry relative="1" as="geometry">
            <Array as="points">
              <mxPoint x="441" y="370" />
            </Array>
          </mxGeometry>
        </mxCell>
        <mxCell id="b8N-6D44wyH8Yvn8sc13-10" style="edgeStyle=orthogonalEdgeStyle;rounded=0;orthogonalLoop=1;jettySize=auto;html=1;dashed=1;" edge="1" parent="1" source="b8N-6D44wyH8Yvn8sc13-2" target="b8N-6D44wyH8Yvn8sc13-4">
          <mxGeometry relative="1" as="geometry" />
        </mxCell>
        <mxCell id="b8N-6D44wyH8Yvn8sc13-2" value="Application Load Balancer" style="sketch=0;outlineConnect=0;fontColor=#232F3E;gradientColor=none;fillColor=#8C4FFF;strokeColor=none;dashed=0;verticalLabelPosition=bottom;verticalAlign=top;align=center;html=1;fontSize=12;fontStyle=0;aspect=fixed;pointerEvents=1;shape=mxgraph.aws4.application_load_balancer;" vertex="1" parent="1">
          <mxGeometry x="402" y="449" width="78" height="78" as="geometry" />
        </mxCell>
        <mxCell id="b8N-6D44wyH8Yvn8sc13-3" value="&lt;div&gt;Target group for&lt;/div&gt;&lt;div&gt;www.mycorp.com&lt;/div&gt;" style="sketch=0;outlineConnect=0;fontColor=#232F3E;gradientColor=none;fillColor=#ED7100;strokeColor=none;dashed=0;verticalLabelPosition=bottom;verticalAlign=top;align=center;html=1;fontSize=12;fontStyle=0;aspect=fixed;pointerEvents=1;shape=mxgraph.aws4.instances;" vertex="1" parent="1">
          <mxGeometry x="666" y="350" width="48" height="48" as="geometry" />
        </mxCell>
        <mxCell id="b8N-6D44wyH8Yvn8sc13-4" value="&lt;div&gt;Target group for&lt;/div&gt;&lt;div&gt;Domain1.example.com&lt;/div&gt;" style="sketch=0;outlineConnect=0;fontColor=#232F3E;gradientColor=none;fillColor=#ED7100;strokeColor=none;dashed=0;verticalLabelPosition=bottom;verticalAlign=top;align=center;html=1;fontSize=12;fontStyle=0;aspect=fixed;pointerEvents=1;shape=mxgraph.aws4.instances;" vertex="1" parent="1">
          <mxGeometry x="666" y="464" width="48" height="48" as="geometry" />
        </mxCell>
        <mxCell id="b8N-6D44wyH8Yvn8sc13-12" style="edgeStyle=orthogonalEdgeStyle;rounded=0;orthogonalLoop=1;jettySize=auto;html=1;" edge="1" parent="1" source="b8N-6D44wyH8Yvn8sc13-5" target="b8N-6D44wyH8Yvn8sc13-2">
          <mxGeometry relative="1" as="geometry">
            <Array as="points">
              <mxPoint x="330" y="746" />
              <mxPoint x="330" y="500" />
            </Array>
          </mxGeometry>
        </mxCell>
        <mxCell id="b8N-6D44wyH8Yvn8sc13-13" value="&lt;div&gt;&lt;span style=&quot;background-color: light-dark(#ffffff, var(--ge-dark-color, #121212)); color: light-dark(rgb(0, 0, 0), rgb(255, 255, 255));&quot;&gt;Use the correct&lt;/span&gt;&lt;br&gt;&lt;/div&gt;&lt;div&gt;SSL cert&lt;/div&gt;" style="edgeLabel;html=1;align=center;verticalAlign=middle;resizable=0;points=[];" vertex="1" connectable="0" parent="b8N-6D44wyH8Yvn8sc13-12">
          <mxGeometry x="0.0229" y="-1" relative="1" as="geometry">
            <mxPoint y="11" as="offset" />
          </mxGeometry>
        </mxCell>
        <mxCell id="b8N-6D44wyH8Yvn8sc13-5" value="&lt;div&gt;SSL Cert:&lt;/div&gt;&lt;div&gt;Domain1.example.com&lt;/div&gt;" style="sketch=0;outlineConnect=0;fontColor=#232F3E;gradientColor=none;fillColor=#DD344C;strokeColor=none;dashed=0;verticalLabelPosition=bottom;verticalAlign=top;align=center;html=1;fontSize=12;fontStyle=0;aspect=fixed;pointerEvents=1;shape=mxgraph.aws4.certificate_manager_2;" vertex="1" parent="1">
          <mxGeometry x="402" y="710" width="78" height="72" as="geometry" />
        </mxCell>
        <mxCell id="b8N-6D44wyH8Yvn8sc13-6" value="&lt;div&gt;SSL Cert:&lt;/div&gt;&lt;div&gt;www.mycorp.com&lt;/div&gt;" style="sketch=0;outlineConnect=0;fontColor=#232F3E;gradientColor=none;fillColor=#DD344C;strokeColor=none;dashed=0;verticalLabelPosition=bottom;verticalAlign=top;align=center;html=1;fontSize=12;fontStyle=0;aspect=fixed;pointerEvents=1;shape=mxgraph.aws4.certificate_manager_2;" vertex="1" parent="1">
          <mxGeometry x="402" y="580" width="78" height="72" as="geometry" />
        </mxCell>
        <mxCell id="b8N-6D44wyH8Yvn8sc13-11" value="..." style="text;html=1;align=center;verticalAlign=middle;resizable=0;points=[];autosize=1;strokeColor=none;fillColor=none;fontSize=20;" vertex="1" parent="1">
          <mxGeometry x="421" y="850" width="40" height="40" as="geometry" />
        </mxCell>
      </root>
    </mxGraphModel>
  </diagram>
</mxfile>
